<svg width="167" height="34" viewBox="0 0 167 34" fill="none" xmlns="http://www.w3.org/2000/svg">
<rect width="167" height="34" fill="white"/>
<path d="M37.722 15.269C37.722 16.97 39.381 18.272 42.426 19.133C45.954 20.141 46.857 21.191 46.857 22.493C46.857 23.984 45.618 25.055 43.749 25.055C41.481 25.055 38.751 23.522 37.575 20.834L37.05 23.648C38.751 25.265 41.04 26.147 43.161 26.147C46.038 26.147 48.915 24.257 48.915 21.821C48.915 19.196 46.689 18.356 42.909 17.201C40.725 16.529 39.423 15.71 39.423 14.555C39.423 13.421 40.221 12.224 42.09 12.224C43.161 12.224 45.702 12.791 47.445 15.605L47.928 13.022C45.954 11.636 44.631 11.174 42.51 11.174C39.129 11.174 37.722 13.673 37.722 15.269ZM51.6878 14.114L51.8348 14.198C52.7588 12.728 54.9848 12.224 57.3578 12.077C57.5048 12.623 57.6308 13.505 57.6308 14.87L57.5258 22.451C57.5258 25.202 56.9798 26 56.9798 26H60.1718C60.1718 26 59.5418 25.202 59.5418 22.451L59.4998 14.87C59.4998 13.526 59.6258 12.644 59.7518 12.098C62.1038 12.287 64.5188 12.791 65.3798 14.198L65.5268 14.114L65.0228 11.237L58.6178 11.3L52.1918 11.237L51.6878 14.114ZM66.3647 26H68.9267C68.7587 24.95 69.2207 23.669 69.3467 23.312L70.1447 21.506H76.8437L77.6207 23.27C77.9147 24.026 78.3557 25.433 78.1247 26H81.8207C81.0437 25.223 80.2877 23.837 79.8467 22.955L75.2057 13.064C74.8697 12.329 74.6387 11.804 74.4707 11.321L71.1527 11.3V11.342C72.0347 11.867 72.6227 12.455 73.0007 13.106L67.9187 23.312C67.5197 24.026 66.9107 25.118 66.3647 26ZM70.5227 20.624L73.4417 13.967L74.0717 15.374L76.4447 20.624H70.5227ZM85.3114 11.3L85.9624 12.14C86.0884 12.707 86.1934 13.568 86.1934 14.87L86.1094 22.451C86.1094 25.202 85.6054 26 85.6054 26H87.9364C87.9364 26 87.3694 25.202 87.3694 22.451L87.3274 14.87C87.3274 14.534 87.3274 14.219 87.3484 13.946L96.6094 26H99.0664L98.6254 25.412C98.4574 24.887 98.2894 23.963 98.2894 22.451L98.2474 14.87C98.2474 12.098 98.7724 11.3 98.7724 11.3H96.6094C96.6094 11.3 97.1134 12.098 97.1134 14.87L97.0294 22.451L97.0084 23.333L87.7684 11.3H85.3114ZM103.26 26L115.272 26.063L115.776 23.186L115.629 23.102C114.285 25.265 109.35 25.139 106.053 25.097C105.927 24.53 105.822 23.69 105.822 22.451L105.801 19.091H114.117V18.209H105.801L105.78 14.87C105.78 13.589 105.885 12.749 106.011 12.182C108.804 12.14 113.697 12.077 114.999 14.177L115.146 14.093L114.642 11.216L103.365 11.3C103.386 11.3 103.911 12.098 103.911 14.87L103.806 22.451C103.806 25.202 103.26 26 103.26 26ZM119.04 26H121.014L129.393 26.084L130.317 22.892L130.17 22.808C128.238 24.971 124.332 25.16 121.707 25.16C121.644 24.614 121.602 23.753 121.602 22.451L121.56 14.87C121.56 12.098 122.106 11.3 122.106 11.3H119.145C119.145 11.3 119.691 12.098 119.691 14.87L119.586 22.451C119.586 25.202 119.04 26 119.04 26ZM133.599 26L145.611 26.063L146.115 23.186L145.968 23.102C144.624 25.265 139.689 25.139 136.392 25.097C136.266 24.53 136.161 23.69 136.161 22.451L136.14 19.091H144.456V18.209H136.14L136.119 14.87C136.119 13.589 136.224 12.749 136.35 12.182C139.143 12.14 144.036 12.077 145.338 14.177L145.485 14.093L144.981 11.216L133.704 11.3C133.725 11.3 134.25 12.098 134.25 14.87L134.145 22.451C134.145 25.202 133.599 26 133.599 26ZM148.539 11.3C150.198 12.854 153.159 16.403 153.663 17.012L155.196 18.902L155.133 22.451C155.133 25.202 154.587 26 154.587 26H157.779C157.779 26 157.149 25.202 157.149 22.451L157.128 18.818L160.341 14.702C160.971 13.925 162.336 12.266 163.218 11.3H160.656C160.656 12.056 159.942 13.253 159.396 14.03L156.477 18.02L154.797 15.794L154.671 15.647L153.6 14.24C152.823 13.148 151.941 11.804 152.025 11.3H148.539Z" fill="#FFFAE2"/>
<path d="M10.8301 15.6965L13.0516 19.4258L15.2747 15.6965H10.8301Z" stroke="#FFFAE2" stroke-width="0.2" stroke-miterlimit="10"/>
<path d="M13.0515 10L10.2656 14.676H15.839L13.0515 10Z" fill="#FFFAE2"/>
<path d="M16.3281 15.6965L12.9992 21.5783L9.67022 15.6965L4 25.7145H10.6579H15.3421H22L16.3281 15.6965Z" fill="#FFFAE2"/>
</svg>
